<svg viewBox="0 0 100 100" fill="none" xmlns="http://www.w3.org/2000/svg"> <path fill-rule="evenodd" clip-rule="evenodd" d="M55.2328 14H52.5373C51.516 14.0868 50.5711 14.5757 49.9103 15.3591C49.2495 16.1425 48.9271 17.1563 49.0139 18.1774C49.1007 19.1985 49.5897 20.1434 50.3732 20.804C51.1567 21.4647 52.1706 21.7871 53.1919 21.7003H55.2328C61.3604 21.7003 67.2371 24.1341 71.57 28.4664C75.9029 32.7987 78.3371 38.6745 78.3371 44.8012V46.8418C78.2517 47.8575 78.5726 48.8656 79.2295 49.6451C79.8864 50.4246 80.8256 50.9118 81.8412 51H82.1493C83.1133 51.0039 84.0436 50.6461 84.7566 49.9974C85.4696 49.3487 85.9133 48.4563 86 47.4963V44.8012C86 36.6389 82.7597 28.8103 76.9908 23.0351C71.222 17.2598 63.3963 14.0102 55.2328 14ZM62.9342 44.8012C62.9342 45.8223 63.3399 46.8016 64.0621 47.5237C64.7842 48.2457 65.7637 48.6514 66.7849 48.6514C67.8062 48.6514 68.7857 48.2457 69.5078 47.5237C70.2299 46.8016 70.6356 45.8223 70.6356 44.8012C70.6356 40.7167 69.0128 36.7995 66.1243 33.9113C63.2357 31.0232 59.3179 29.4006 55.2328 29.4006C54.2115 29.4006 53.2321 29.8063 52.5099 30.5283C51.7878 31.2503 51.3821 32.2296 51.3821 33.2508C51.3821 34.2719 51.7878 35.2512 52.5099 35.9732C53.2321 36.6953 54.2115 37.1009 55.2328 37.1009C57.2753 37.1009 59.2342 37.9122 60.6785 39.3563C62.1228 40.8004 62.9342 42.759 62.9342 44.8012ZM79.9999 81.1449L80 81.1142L79.6492 69.0633C79.6687 67.7296 79.2325 66.4284 78.4119 65.3757C77.5795 64.3079 76.4029 63.5617 75.0825 63.2642L75.0117 63.2483L74.9399 63.2376C73.9223 63.0868 72.8825 62.9004 71.9312 62.6807L71.9218 62.6786L71.9125 62.6765C69.9037 62.2335 67.9266 61.6575 65.9941 60.9524L64.2912 60.3312L61.0946 67.439L61.0921 67.4445C60.8758 67.912 60.4838 68.2752 60.0011 68.4549L59.9705 68.4663L59.9403 68.4787C59.4872 68.665 58.9815 68.6737 58.5234 68.5049C51.5187 64.8597 45.1911 60.0033 40.4797 55.1855C38.1151 52.7675 36.1831 50.3851 34.7815 48.2C33.3645 45.9908 32.5603 44.0924 32.3186 42.629L32.2825 42.4106L32.1984 42.2057C32.0031 41.7301 32.0031 41.1965 32.1984 40.7208L32.2108 40.6906L32.2222 40.66C32.4025 40.1752 32.7677 39.7817 33.2376 39.5659L33.2466 39.5617L40.3527 36.2098L39.711 34.5213C39.0006 32.6521 38.4278 30.7334 37.9972 28.7805L37.9966 28.7776C37.9126 28.3997 37.8324 28.073 37.7607 27.7808C37.5831 27.0574 37.4576 26.5464 37.4576 25.9986V25.7816L37.4099 25.5699C37.1126 24.2488 36.3668 23.0716 35.2996 22.2387C34.2393 21.4112 32.9268 20.9743 31.5829 21.0012H19.9021C19.0782 20.996 18.2625 21.165 17.5083 21.497C16.7531 21.8295 16.0767 22.318 15.5234 22.9305C14.9405 23.5717 14.5071 24.3343 14.2544 25.1634C14.0031 25.9884 13.9369 26.8587 14.0606 27.7121C16.0394 42.767 22.9288 56.7477 33.6599 67.4851L33.7126 67.5378L33.7691 67.5863C37.5255 70.8103 43.9624 75.6139 51.1536 79.6231C58.2392 83.5735 66.3421 86.9162 73.4289 86.9575C74.2381 87.0556 75.0594 86.9836 75.8401 86.7454C76.6687 86.4926 77.4309 86.059 78.0718 85.4757C78.6765 84.9287 79.1604 84.2614 79.4925 83.5163C79.8251 82.77 79.998 81.9621 79.9999 81.1449Z" fill="#5199ff"></path> </svg>